# xmcd CD database file
#
# Track frame offsets:
#	150
#	11493
#	22767
#	32462
#	51718
#	66871
#	79416
#	91104
#	104719
#	119766
#	133311
#	147088
#	159137
#	172580
#
# Disc length: 2479 seconds
#
# Revision: 0
# Processed by: cddbd v1.5.1PL2 Copyright (c) Steve Scherf et al.
# Submitted via: CDex 1.51
#
DISCID=b409ad0e
DTITLE=Dinah Washington - Vocal Jazz
DYEAR=2001
DGENRE=Jazz
TTITLE0=What A Difference A Day Makes
TTITLE1=Our Love Is Here To Stay
TTITLE2=September In The Rain
TTITLE3=Manhattan
TTITLE4=Smoke Gets In Your Eyes
TTITLE5=Mad About The Boys
TTITLE6=Harbour Lights
TTITLE7=I Concentrate On You
TTITLE8=I Won't Cry Any More
TTITLE9=Soft Winds
TTITLE10=If It's The Last Thing I Do
TTITLE11=Dream
TTITLE12=Trust In Me
TTITLE13=Tell Me Why
EXTD=YEAR: 2001
EXTT0=
EXTT1=
EXTT2=
EXTT3=
EXTT4=
EXTT5=
EXTT6=
EXTT7=
EXTT8=
EXTT9=
EXTT10=
EXTT11=
EXTT12=
EXTT13=
PLAYORDER=
